<?xml version="1.0" encoding="UTF-8"?>
<svg version="1.1" viewBox="0 0 1600 1600" width="1280" height="1280" xmlns="http://www.w3.org/2000/svg">
<path transform="translate(0)" d="m0 0h1600v1600h-1600z" fill="#FBFDFD"/>
<path transform="translate(529,209)" d="m0 0 24 1 23 4 17 5 18 8 16 10 13 11 11 11 10 13 11 18 8 15 10 24 12 36 7 24 16 64 12 54 8 45 4 28v8l20-7 5-2h3l-11-42-10-41-7-35-5-32-1-10v-25l3-17 5-15 9-16 11-13 7-7 15-11 11-6-7-15-3-12v-23l4-13 6-9 6-4 7-2 11 1 9 4 9 6 7 9 4 11 1 6v14l-3 14 16 2 12 4 12 6 9 7 9 8 11 15 14 29 13 31 13 38 10 38 6 31 4 28 2 21 1 22h24l14-2 18-6 16-9 14-11 8-8 13-17 10-18 8-17 12-36 11-44 9-38 6-18 7-13 8-7 3-1h11l10 5 12 11 10 13 12 21 10 23 8 24 6 25 4 23 2 21v40l-3 26-4 18-7 21-9 20-10 18-10 15-12 16-11 13-11 12-16 16-8 7-17 14-18 13-21 13-20 11-29 13-13 5 4 1 126 4 48 2 41 1 18 1 10 4 8 6 6 8 3 9v477l-4 11-6 8-9 6-6 2-20 2-441 33h-9l2 14 4 40-1 8-5 6-4 2-258 19h-16l-11-4-6-7-2-9-4-39v-7l-34 3-68 5h-25l-10-3-9-6-6-8-3-8-1-360-36-18-23-13-22-15-12-9-10-8-14-12-16-16-11-14-10-15-8-17-5-16-2-14v-15l3-18 6-18 12-23 10-14 9-11 12-13 10-9 13-10 18-11 18-8 15-4 13-2h27l-12-23-8-18-5-12-9-25-4-17-3-14-1-9v-20l3-14 7-14 8-8 16-8 21-8 11-8 7-9 5-11 2-10v-17l-3-30v-43l3-24 6-27 8-23 8-17 12-18 11-12 9-8 14-9 16-8 21-7 20-4z" fill="#F89038"/>
<path transform="translate(529,209)" d="m0 0 24 1 23 4 17 5 18 8 16 10 13 11 11 11 10 13 11 18 8 15 10 24 12 36 7 24 16 64 12 54 8 45 4 28v8l20-7 5-2h3l-11-42-10-41-7-35-5-32-1-10v-25l3-17 5-15 9-16 11-13 7-7 15-11 11-6-7-15-3-12v-23l4-13 6-9 6-4 7-2 11 1 9 4 9 6 7 9 4 11 1 6v14l-3 14 16 2 12 4 12 6 9 7 9 8 11 15 14 29 13 31 13 38 10 38 6 31 4 28 2 21 1 22h24l14-2 18-6 16-9 14-11 8-8 13-17 10-18 8-17 12-36 11-44 9-38 6-18 7-13 8-7 3-1h11l10 5 12 11 10 13 12 21 10 23 8 24 6 25 4 23 2 21v40l-3 26-4 18-7 21-9 20-10 18-10 15-12 16-11 13-11 12-16 16-8 7-17 14-18 13-21 13-20 11-29 13-16 6h-17l-497-17-48-2-56-2h-40l-11 4-7 6-3 5h-2l-2 8-1 218-19-9-29-15-18-11-16-11-12-9-10-8-14-12-16-16-11-14-10-15-8-17-5-16-2-14v-15l3-18 6-18 12-23 10-14 9-11 12-13 10-9 13-10 18-11 18-8 15-4 13-2h27l-12-23-8-18-5-12-9-25-4-17-3-14-1-9v-20l3-14 7-14 8-8 16-8 21-8 11-8 7-9 5-11 2-10v-17l-3-30v-43l3-24 6-27 8-23 8-17 12-18 11-12 9-8 14-9 16-8 21-7 20-4z" fill="#FC7F9F"/>
<path transform="translate(373,767)" d="m0 0h40l85 3 49 2 179 6 288 10h18l6 1 126 4 48 2 41 1 18 1 10 4 7 5-1 4-9 8-11 9-13 11-22 18-13 11-10 8-17 14-13 11-14 11-14 12-11 9-13 11-14 11-14 12-11 9-13 11-10 8-13 11-10 8-17 14-13 11-10 8-13 11-10 8-17 14-13 11-14 11-13 11-14 7-7 2h-20l-12-4-12-7-14-10-19-13-23-16-16-11-13-9-6-57-10-101-3-9-6-5-2-1-40-2-213-8h-27l-8 3-5 5-1 7 31 306 19 187v10l-20 2-81 6h-25l-10-3-9-6-6-8-3-8v-578l3-8h2l2-5 10-8z" fill="#FAAD48"/>
<path transform="translate(817,231)" d="m0 0 11 1 9 4 9 6 7 9 4 11 1 6v14l-3 14 16 2 12 4 12 6 9 7 9 8 11 15 14 29 13 31 13 38 10 38 6 31 4 28 2 21 1 22h24l14-2 18-6 16-9 14-11 8-8 13-17 10-18 8-17 12-36 11-44 9-38 6-18 7-13 8-7 3-1h11l10 5 12 11 10 13 12 21 10 23 8 24 6 25 4 23 2 21v40l-3 26-4 18-7 21-9 20-10 18-10 15-12 16-11 13-11 12-16 16-8 7-17 14-18 13-21 13-20 11-29 13-16 6h-17l-403-14-4-1v-11l4-20 7-21 14-29 12-19 10-14 11-13 11-12 11-10 16-12 18-11 17-9 36-14h3l-11-42-10-41-7-35-5-32-1-10v-25l3-17 5-15 9-16 11-13 7-7 15-11 11-6-7-15-3-12v-23l4-13 6-9 6-4z" fill="#863674"/>
<path transform="translate(482,899)" d="m0 0h16l218 7 23 1 6 3 5 6 2 13 46 463 1 10v12l-4 6-4 2-34 3-212 15h-8l-6-3-5-6-3-25-50-492 1-8 4-5z" fill="#DE97E3"/>
<path transform="translate(465,867)" d="m0 0h27l239 9 14 1 6 4 4 5 2 7 39 392h1v-7l1-1-2-1-1-9 6-5 17-8 29-13 25-11 10-5 9-3 3 3 10 17 1 3h2l1 4 5-1 35-16 18-8 40-18 3 1-14 7-16 7-14 6-8 4-20 9-21 9-2 2 1 4 7 7 14 9 16 7 15 4 15 2h18l24-3 36-8 30-7 22-3h19l17 3 13 5 11 6 9 7 12 12 7 10 8 14 4 9v3l2 1-402 30h-9l2 14 4 40-1 8-5 6-4 2-258 19h-16l-11-4-6-7-2-9-9-86-46-452-1-15 3-6 5-4zm17 32-6 4-3 6 2 25 49 482 2 15 6 7 5 2 23-1 197-14 34-3 6-4 2-4v-12l-46-462-2-20-3-7-6-5-3-1-241-8z" fill="#F8914E"/>
<path transform="translate(756,886)" d="m0 0 8 4 36 1 3 1 96 4 14 1 54 2 63 3 15 1 31 1 63 3 22 2 2 1-1 4-14 11-15 13-22 18-17 14-13 11-14 11-15 13-10 8-17 14-13 11-10 8-13 11-10 8-17 14-13 11-14 11-13 11-14 7-7 2h-20l-12-4-12-7-14-10-19-13-23-16-16-11-13-9-6-57-10-101z" fill="#FDBD42"/>
<path transform="translate(1274,560)" d="m0 0h29l19 3 16 5 16 7 12 8 10 9 7 10 6 12 4 14 1 7v27l-4 24-6 21-8 23-16 33-5 14-1 5v16l3 12 6 12 9 11 8 9 6 12 1 4v13l-4 13-7 12-11 13-7 7-11 9-13 10-17 11-17 10h-2l-1-132-4-11-7-8-11-6-4-1-18-1-71-2-18-1-126-4-6-1 2-2 24-10 22-10 18-10 22-14 17-13 11-9 10-9 8-7 17-17 9-11 10-12 14-20 13-23 9-20 8-24 3-15 1 3 13-4z" fill="#DC8ADE"/>
<path transform="translate(372,775)" d="m0 0 5 2 12 8 20 14 32 22 23 16 32 22 11 8v1h-42l-8 3-5 5-1 7 16 158v10l-1 2-4-1-2 9-3 5-1 5-4 2-1 125-1 171-8 2-24 11-19 8-18-1-4-1v-2l-5-2-7-8-3-8-1-41v-532l3-9 6-9z" fill="#FDBD42"/>
<path transform="translate(552,901)" d="m0 0 101 3 86 3 6 3 5 6 2 13 46 463 1 10v12l-4 6-4 2-22 2h-8l-1-1-3-30-5-26-8-26-8-19-8-16-10-16-12-16 2-3 12-6 5-5 4-7 1-3v-15l-18-36-11-20-8-7-8-3h-12l-10 4-12 9-5 4-20-39-6-11v-2l14-3 12-5 8-7 4-8 1-4v-10l-4-10-21-41-6-9-7-6-9-3h-9l-10 2 1-10v-31l-4-21-7-19-8-16-10-16-11-13v-2z" fill="#DB8ADE"/>
<path transform="translate(1291,1069)" d="m0 0 3 1 1 5 2 2-10 3-24 11-33 15-71 32-26 12-30 13-28 13-18 8-15 7-25 11-1 1 23-10 13-6 23-10 16-8 17-7 19-9 21-9 19-9 18-8 24-11 12-5 15-7 24-11 29-13 5-2 1 7 2 1v219l-6 12-8 7-10 4-20 2-26 2h-15l-8-18-7-11-8-10-11-11-13-8-11-5-15-4-8-1h-19l-22 3-47 11-25 5-18 2h-18l-20-3-15-5-16-8-11-8-7-7 1-4 5-3 20-9 18-8 15-7 20-9 12-5 2-2-35 16-58 26h-2l-1 2v-2h-2l-2-5 10-6 10-4 11-5 18-8 15-7 20-9 16-7 17-8 23-10 8-4 8-3 16-8 17-7 12-6 24-11 19-8 7-4 10-4 27-12 15-7 29-13 13-6 16-7 15-7z" fill="#F47D3B"/>
<path transform="translate(817,231)" d="m0 0 11 1 9 4 9 6 7 9 4 11 1 6v14l-3 14 16 2 12 4 12 6 9 7 9 8 11 15 14 29 13 31 13 38 10 38 6 31 4 28 2 21 1 19v44l-3 38-5 36-7 34-5 17-7 14-2 2-5-1-3-5-4-19-8-69-7-56-3-21-5-29-8-6-8-9-7-14-4-16-1-6v-13l8-9 5-11 3-12 1-16-2-21-6-28-4-10-7-10-8-7-6-2 7 7 7 10 6 13 3 10v5l-9-6-12-3h-20l-17 3-17 5-16 8-11 10-4 7-2-2-3-12v-20l4-13 1-3-6 10-4 16v11l5 25 7 20 8 15 9 11 11 8 11 5-4 20-6 15-7 11-6 7-13 9-14 6-10 2-8-29-13-53-7-35-5-32-1-10v-25l3-17 5-15 9-16 11-13 7-7 15-11 11-6-7-15-3-12v-23l4-13 6-9 6-4z" fill="#40427D"/>
<path transform="translate(316,686)" d="m0 0h20l19 3 18 5 24 10 22 11 27 16 22 14 37 25v1l-64-2-28-1h-40l-11 4-7 6-3 5h-2l-2 8-1 218-19-9-29-15-18-11-16-11-12-9-10-8-14-12-16-16-11-14-10-15-8-17-5-16-2-14v-15l3-18 6-18 12-23 10-14 9-11 12-13 10-9 13-10 18-11 18-8 15-4z" fill="#DC8ADE"/>
<path transform="translate(532,302)" d="m0 0h15l6 4 4 5 1 2v7l6 1 2-5 8-7 10-1 13 4 6 5 3 6v10l-2 6 6 4 7-3h8l6 3 5 5 4 5 2 5v7l-4 9-4 4h-2l4 12v3h8l6 4 4 5 1 2v12l-3 6-8 7-7 1-3 14 6 5 3 5 1 10-3 8-4 5-8 4h-14l-7 8 2 10-1 8-4 7-6 5-3 1h-16l-8-3-4-2-6 1v7l-4 8-7 6-3 1h-15l-8-3-5-5-2-4-1-7h-5l-6 7-7 3-16-1-8-4-4-5-1-3v-11l1-6-4-3h-15l-9-3-6-5-3-7v-8l5-10 4-4-3-10v-3h-7l-6-3-5-6-2-5v-7l4-9 7-6 8-1 1-8 2-8-5-2-4-6-1-3v-9l4-8 6-5 4-2h15l7-8-2-9 1-10 4-6 6-5 6-2 14 1 10 5 6-2 2-10 4-5 8-4z" fill="#FBFDFD"/>
<path transform="translate(465,867)" d="m0 0h27l239 9 14 1 6 4 4 5 2 7 46 463 6 61-1 8-5 6-4 2-258 19h-16l-11-4-6-7-2-9-9-86-46-452-1-15 3-6 5-4zm17 32-6 4-3 6 2 25 49 482 2 15 6 7 5 2 23-1 197-14 34-3 6-4 2-4v-12l-46-462-2-20-3-7-6-5-3-1-241-8z" fill="#383863"/>
<path transform="translate(316,686)" d="m0 0h20l19 3 18 5 24 10 22 11 27 16 22 14 37 25v1l-64-2-28-1h-40l-11 4-7 6-3 5h-2l-2 8-1 218-19-9-29-15-16-10 2-5 28-56 9 1 22 4 2 1-1-80-9-6-13-10-14-11-13-11-13-12-10-10-7-8-11-13-14-19-8-12 6-7 13-10 18-11 18-8 15-4z" fill="#DC89DD"/>
<path transform="translate(876,366)" d="m0 0 9 3 10 9 7 11 5 16 4 20 2 22-1 15-4 15-5 9-7 8v13l4 19 6 14 7 9 8 7 3 2 5 29v6l-12 5-22 5-20 2-27 1h-32l-19-3-16-5-14-7-1-2v-7l29-10 11-6 10-8 9-13 6-14 4-16 1-6-15-8-10-9-7-10-8-16-7-21-4-21v-11l4-16 6-10 3-2-2 5-4 13v20l3 12 4-5 8-8 13-8 16-6 18-4 7-1h20l12 3 6 4 2 2-1-8-5-13-6-11-10-11z" fill="#FDBD42"/>
<path transform="translate(362,771)" d="m0 0 2 1-3 5 2 13-1 5v540l1 33 4 9 5 6 5 3v2l22 1 23-10 22-10h6v-171l1-130 2 4 3-1 1-7 3-5 2-7 4 1v-2h2l33 325v10l-20 2-81 6h-25l-10-3-9-6-6-8-3-8v-578l3-8h2l2-5z" fill="#F8914D"/>
<path transform="translate(603,1027)" d="m0 0h9l11 4 8 8 15 29 12 23 2 6v10l-3 9-9 10-11 5-11 3h-6l19 37 8 14 10-9 12-7 4-1h12l10 4 7 7 15 28 13 25 1 3v15l-4 9-4 5-10 6-11 4-5 1h-20l-14-4-12-7-9-9-9-11-11-12-13-18-11-18-11-21-10-25-7-21-6-23-3-13v-20l5-15 8-12 10-10 12-7z" fill="#EDD3EF"/>
<path transform="translate(450,894)" d="m0 0h2l15 147v10l-1 2-4-1-2 9-3 5-1 5-4 2-1 125-1 171-8 2-24 11-19 8-18-1-4-1v-2l-5-2-7-8-3-8-1-41v-244h1l1 130 3 2 30-13 10-5 30-13 8-4h5z" fill="#FAAD47"/>
<path transform="translate(1336,699)" d="m0 0 9 3 30 15 4 1-1 7-11 24-9 19-4 14v16l3 12 6 12 9 11 8 9 6 12 1 4v13l-4 13-7 12-11 13-7 7-11 9-13 10-17 11-17 10h-2l-1-132-4-11-7-8-11-6-4-1-30-2 9-19 3-6 19-13 17-13 14-12 12-11 12-12 7-8z" fill="#C080E4"/>
<path transform="translate(1201,666)" d="m0 0 2 2 7 26 10 25 8 16 8 15 8 12 6 8-2 6-9 19-1 1h-26l-48-2-126-4-6-1 2-2 24-10 22-10 18-10 22-14 17-13 11-9 10-9 8-7 17-17 9-11z" fill="#C080E4"/>
<path transform="translate(543,353)" d="m0 0 11 1 12 5 13 10 8 10 6 12 3 11 1 7v11l-3 16-6 14-8 11-6 7-11 8-12 6-11 3h-17l-12-5-11-7-7-7-8-13-4-10-2-10v-17l3-14 5-12 9-13 9-9 11-7 11-5z" fill="#FD7F9F"/>
<path transform="translate(516,869)" d="m0 0h30l185 7 14 1 6 4 4 5 2 7 46 463 6 61-1 8-5 6-4 2-26 2h-13v-10l9-2 22-2 5-3 2-4v-12l-46-462-2-20-3-7-5-4-3-1-181-6-7-2-10-10-22-18z" fill="#2B2955"/>
<path transform="translate(894,495)" d="m0 0h1l2 18 4 16 7 14 9 10 7 5 5 29v6l-12 5-22 5-20 2-27 1h-32l-19-3-16-5-14-7-1-2v-7l29-10 11-6 10-8 9-13 6-14 4-16 2-7 7 1h15l17-4 14-7z" fill="#F7904D"/>
<path transform="translate(601,544)" d="m0 0 7 1 3 3 1 5h3l2-4 4-2 6 1 5 3 2 2v9l4 1h7l6 6v7l-3 4v7l6 1 3 3 1 7-4 6-5 1-1 7 4 5v6l-5 6-9 1-2 2v10l-4 5-2 1h-8l-4-2h-3l-4 8-3 2h-10l-5-4-1-5-7 5-11-1-4-4v-9l-1-1-10-1-6-5v-7l3-4v-7l-6-1-3-3-1-6 3-6 6-3 1-6-4-5v-6l4-5 10-2 2-2v-10l5-5 6-1 6 1 5 1 2-6 4-3z" fill="#FBFCFD"/>
<path transform="translate(479,1169)" d="m0 0h1l21 207v10l-20 2-13 1h-17v-184l9-1-3-10 2-2 2-9 4-3h2l1-4 6-2z" fill="#F47D3B"/>
<path transform="translate(1274,560)" d="m0 0h27l1 1v41l-3 24-6 25-6 22-2 1-42-21-21-10-3-1 2-6 9-16 10-23 7-23 2-11 1 3 13-4z" fill="#DB8ADE"/>
<path transform="translate(465,867)" d="m0 0h5l-5 4-3 5v12l26 256 30 295 4 8 3 4-7-1-6-4-4-5-2-9-9-86-46-452-1-15 3-6 5-4z" fill="#42427D"/>
<path transform="translate(779,464)" d="m0 0h13l5 2 8 16 8 11 8 7 16 8-4 20-6 15-7 11-6 7-13 9-14 6-10 2-8-29-13-53-3-14v-5l10-7 11-5z" fill="#363862"/>
<path transform="translate(1218,641)" d="m0 0 13 5 54 27 1 2-11 35-13 34-10 23h-2l-10-15-12-21-10-22-10-30-4-17 12-17z" fill="#C080E5"/>
<path transform="translate(1118,197)" d="m0 0 4 2 8 18 10 26 3 7 2 1-3-14-5-12-4-11v-9l1-3 4 2 7 15 17 48 12 41 5 20v3l-11 1-8 4-7-11-9-9-11-7-13-6-27-9-2-2 1-4 8-3h15l4-4 2-8v-12l-4-17-9-26 1-3 6 4 6 10 8 17-3-11-7-19-1-4z" fill="#FBAE47"/>
<path transform="translate(876,366)" d="m0 0 9 3 10 9 7 11 5 16 4 20-1 13-2 1-12 2-22 2-21 3-40 5-5 1h-12-4l-2-3-5-25v-11l4-16 6-10 3-2-2 5-4 13v20l3 12 4-5 8-8 13-8 16-6 18-4 7-1h20l12 3 6 4 2 2-1-8-5-13-6-11-10-11z" fill="#FAAC47"/>
<path transform="translate(780,1124)" d="m0 0 11 2 17 6 16 8 16 10 13 11 2 4 5 3 3 3-1 6h3v3l-24 11-27 12-20 9-4 2-1 2-1-1-8-81z" fill="#FAAD47"/>
<path transform="translate(1165,706)" d="m0 0 1 3-10 31-9 36-3 15-1 2h-16l-89-3-6-1 2-2 24-10 22-10 18-10 22-14 17-13 11-9 10-9z" fill="#FBFBFC"/>
<path transform="translate(466,1051)" d="m0 0h2l11 108v13l-4 2-2 2h-5l-1 4-5 3-2 9-2 3 2 7v2l-8 2-1 183 4 1-55 4h-10l-10-1v-2l-4-2-8-7v-3l7 6 2 1v2l22 1 23-10 22-10h6v-171l1-130 2 4 3-1 1-7 3-5 2-7 4 1z" fill="#F89038"/>
<path transform="translate(313,914)" d="m0 0 9 1 22 4 2 1v88l-6-2-30-15-23-13-4-3 2-5 25-50z" fill="#C080E4"/>
<path transform="translate(1384,606)" d="m0 0 3 3 5 15 2 11v27l-4 24-6 21-4 12-9-3-16-8-17-8-1-2 12-16 12-19 8-16 6-14 6-18z" fill="#DC8ADE"/>
<path transform="translate(362,771)" d="m0 0 2 1-3 5 2 13-1 5-1 214-2-3-2-9-2-12-3-30v27l1 8-2 1-2-4-1 81h-1v-277l3-8h2l2-5z" fill="#F99038"/>
<path transform="translate(603,569)" d="m0 0 9 1 8 5 6 7 3 7 1 5v8l-3 10-6 9-7 6-10 4h-9l-10-5-7-8-3-7-1-5v-7l4-13 8-10 8-5z" fill="#FD7F9F"/>
<path transform="translate(1289,676)" d="m0 0 9 3 32 16 3 3-9 11-24 24-11 9-15 12-17 12-1-3 10-23 13-35z" fill="#C080E5"/>
<path transform="translate(1117,284)" d="m0 0h14l34 2 3 1 8 29 3 12v3l-11 1-8 4-7-11-9-9-11-7-13-6-27-9-2-2 1-4 8-3h15z" fill="#FDBD43"/>
<path transform="translate(413,714)" d="m0 0 6 1 27 16 22 14 37 25v1l-64-2-5-8-12-23-13-20z" fill="#C080E4"/>
<path transform="translate(1301,560)" d="m0 0 4 1 1 10v22l-2 23-5 26-12 42-13 38-15 37-2 6 18-13 14-11 15-13 21-21 9-11 11-14 12-19 10-19 8-21 6-21h2l2 4-10 30-8 18-11 19-12 17-10 13-15 16-12 12-11 9-9 8-19 14-15 10-11 23-4 1 9-20 2-6-8-11-11-18-8-15-10-24-6-18-4-16 1-5h2l7 26 7 20 12 26 13 22 6 8v2h2l3-9 12-29 13-37 10-33 7-28 3-18 1-11z" fill="#DE97E2"/>
<path transform="translate(807,235)" d="m0 0 1 2-3 9v10l3 6 8 4 12 3 8 5 5 6 4 11v5l-21 5-17 7h-3l-7-14-3-12v-23l4-13 6-9z" fill="#363862"/>
<path transform="translate(793,535)" d="m0 0 12 1 18 6 2 1-1 5-8 11-10 8-16 8-10 3h-3l-8-29v-4l12-7z" fill="#292853"/>
<path transform="translate(494,1386)" d="m0 0h8l6 55-4-2-15-14-8-7-13-12-10-9-7-6 4-2z" fill="#E7DBED"/>
<path transform="translate(554,354)" d="m0 0 9 1 12 5 11 8 9 10 8 16 3 13v17l-4 16-8 16-8 10-9 8-14 8-13 4-14 1-11-1v-1l15-1 16-5 13-8 8-7 8-11 7-14 3-11 1-8v-11l-3-15-5-12-9-12-10-8-12-6z" fill="#E8DDEE"/>
<path transform="translate(908,476)" d="m0 0h1l12 60 3 17v5l-7-4-8-8-7-12-5-16-2-11v-13l8-9z" fill="#373762"/>
<path transform="translate(409,724)" d="m0 0 4 2 13 21 10 19v2h-23l-27-1 2-1 2-6 8-16 10-19z" fill="#C080E4"/>
<path transform="translate(345,849)" d="m0 0h1v67l-11-1-18-4-1-3 25-50 3-5z" fill="#C080E5"/>
<path transform="translate(446,358)" d="m0 0h9l3 2-9 3-5 6-2 6v7l4 8 5 4-1 9-2 7-9 3-5 5-3 5v13l4 6 5 4h-7l-6-3-5-6-2-5v-7l4-9 7-6 8-1 1-8 2-8-5-2-4-6-1-3v-9l4-8 6-5z" fill="#E8DDEE"/>
<path transform="translate(444,1369)" d="m0 0h6v21l-50 4h-10l-10-1v-2l-4-2-8-7v-3l7 6 2 1v2l22 1 23-10z" fill="#F99238"/>
<path transform="translate(178,843)" d="m0 0 8 6 13 10 17 11 18 10 23 11 24 9 26 8 33 7 6 1v4l-24-4-34-9-28-10-26-12-18-10-21-14-14-11h-3z" fill="#DE97E2"/>
<path transform="translate(915,513)" d="m0 0 2 1 7 39v5l-7-4-8-8-7-12-1-8 10-10z" fill="#2A2854"/>
<path transform="translate(232,728)" d="m0 0 3 1 10 15 13 17 12 14 12 13 9 9 8 7 17 14 16 12 11 8 3 2v5l-9-6-18-14-14-11-14-12-8-8-5-4-7-8-12-13-11-14-13-18-5-8z" fill="#DE97E2"/>
<path transform="translate(440,446)" d="m0 0 9 1 4 14-7 8-2 6v7l4 8 6 4 8 1v1h-10l-9-3-6-5-3-7v-8l5-10 4-4-3-10z" fill="#E8DDEE"/>
<path transform="translate(483,318)" d="m0 0 14 1v1l-9 1-6 4-4 5-2 7 1 8 1 6-9 10-8-2 3-5 4-4-2-9 1-10 4-6 6-5z" fill="#E8DDEE"/>
<path transform="translate(1153,748)" d="m0 0h1l4 44-1 1h-14l5-26z" fill="#C181E4"/>
<path transform="translate(470,492)" d="m0 0 4 2 8 7-2 6v9l4 8 6 3v1h-7l-8-4-4-5-1-3v-11l1-6-7-4 4-2z" fill="#E8DDEE"/>
<path transform="translate(468,1388)" d="m0 0h7v20l-1 2-4-2-13-12-6-5 4-2z" fill="#ECD3EE"/>
<path transform="translate(575,552)" d="m0 0 4 1-5 5v10l-4 4-9 1-3 3-1 7 4 5-1 7-7 4-1 2v7l4 5-6-1-3-3-1-6 3-6 6-3 1-6-4-5v-6l4-5 10-2 2-2v-10l5-5z" fill="#E8DCEE"/>
<path transform="translate(612,570)" d="m0 0 6 1 8 6 4 5 4 10v13l-5 12-8 9-10 5-5 1h-10v-1l12-2 10-6 6-7 4-9 1-5v-8l-3-10-4-6-6-5z" fill="#E8DDEE"/>
<path transform="translate(398,706)" d="m0 0 5 1 12 6-3 5 11 17 10 18 7 15h-4l-12-23-12-19-10-14z" fill="#DE97E2"/>
<path transform="translate(532,302)" d="m0 0h5l-3 2-7 6-3 6-1 7-12 5-4-1v-3l6-2 2-10 4-5 8-4z" fill="#E8DDEE"/>
<path transform="translate(1006,1206)" d="m0 0 3 1-14 7-16 7-14 6-8 4-20 9-21 9-4 5-1-5 37-17 18-8z" fill="#F99138"/>
<path transform="translate(1380,844)" d="m0 0 2 2-9 8-17 11-23 11-8 3h-3v-2l25-11 20-12z" fill="#DE97E3"/>
<path transform="translate(517,518)" d="m0 0 9 1 3 9 4 6 4 2 11 1v1h-15l-8-3-5-5-2-4z" fill="#E8DDEE"/>
<path transform="translate(578,308)" d="m0 0 11 1 3 2-10 2-7 6-3 4-8-2 2-5 8-7z" fill="#E8DDEE"/>
<path transform="translate(481,1389)" d="m0 0h3v27l-1 2-4-2-1-5 1-18z" fill="#ECD3EE"/>
<path transform="translate(481,1387)" d="m0 0m-6 1h6l-1 5-1 18-1 3-4-2-1-2 1-2z" fill="#E8DDEE"/>
<path transform="translate(1153,748)" d="m0 0h1l4 44-2 1-2-8-3-29z" fill="#DF98E3"/>
<path transform="translate(556,613)" d="m0 0h4l2 7-3 3-1 7 2 4 2 2-5-1-4-4v-7l3-4z" fill="#E8DCEE"/>
<path transform="translate(617,340)" d="m0 0h8l6 3 3 2-1 2-5-2-9 1-6 2-3-3v-2z" fill="#E8DDEE"/>
<path transform="translate(505,1422)" d="m0 0h1l2 19-4-2-6-5 2-7 1-2h3z" fill="#E9CBED"/>
<path transform="translate(611,883)" d="m0 0 5 1 2 3-1 6-4 1-4-2-1-7z" fill="#F3E9F8"/>
<path transform="translate(570,634)" d="m0 0 5 4v8l3 5-5-1-3-3v-9l-3-3z" fill="#E8DDEE"/>
<path transform="translate(575,511)" d="m0 0 5 5 5 4-9-1-6-4 3-3z" fill="#E8DCEE"/>
<path transform="translate(596,545)" d="m0 0 4 1-4 4-1 5-7 2-1-2 3-1 2-6z" fill="#E8DCEE"/>
<path transform="translate(455,1389)" d="m0 0 6 1-1 8-8-6-1-2z" fill="#E8DCEE"/>
<path transform="translate(505,1430)" d="m0 0 2 2 1 9-4-2-3-3 1-4h3z" fill="#E4D2EC"/>
<path transform="translate(794,1267)" d="m0 0 2 1v8l3 1-1 1v8l-2 2-2-13z" fill="#F78D39"/>
<path transform="translate(621,547)" d="m0 0 6 1-4 2-4 4h-7l3-1 2-4z" fill="#E8DCEE"/>
<path transform="translate(592,647)" d="m0 0h5l3 7 2 2-6-1-3-3z" fill="#E8DDEE"/>
<path transform="translate(450,894)" d="m0 0h2l1 14-1 2h-2z" fill="#F9A143"/>
<path transform="translate(405,709)" d="m0 0 6 2 4 3-3 3-4-2z" fill="#DC8ADE"/>
<path transform="translate(502,1417)" d="m0 0 1 4h2v8l-1-4h-3v-7z" fill="#EBD7EE"/>
</svg>
